<svg width="40" height="40" viewBox="0 0 40 40" fill="none" xmlns="http://www.w3.org/2000/svg">
<path d="M32.3743 7.63646C30.7522 5.99831 28.8224 4.6968 26.6958 3.80671C24.5692 2.91662 22.2877 2.4555 19.9823 2.44982C17.6769 2.44415 15.3931 2.89404 13.2621 3.77365C11.1312 4.65326 9.19499 5.94525 7.56484 7.5754C5.93469 9.20555 4.6427 11.1417 3.76309 13.2727C2.88348 15.4037 2.43359 17.6875 2.43926 19.9928C2.44494 22.2982 2.90606 24.5798 3.79615 26.7064C4.68624 28.833 5.98775 30.7628 7.6259 32.3849C9.24801 34.0231 11.1778 35.3246 13.3044 36.2147C15.4311 37.1047 17.7126 37.5659 20.018 37.5716C22.3233 37.5772 24.6071 37.1273 26.7381 36.2477C28.8691 35.3681 30.8052 34.0761 32.4354 32.446C34.0655 30.8158 35.3575 28.8796 36.2371 26.7487C37.1168 24.6177 37.5667 22.3339 37.561 20.0285C37.5553 17.7232 37.0942 15.4416 36.2041 13.315C35.314 11.1884 34.0125 9.25857 32.3743 7.63646ZM5.00012 20.0107C4.99956 18.6831 5.17558 17.3614 5.52356 16.0802C6.097 17.3146 6.92981 18.381 7.49621 19.6474C8.22824 21.2755 10.1939 20.824 11.0618 22.2505C11.8322 23.5169 11.0095 25.1185 11.5861 26.4435C12.0048 27.4052 12.9923 27.6154 13.6736 28.3185C14.3697 29.0279 14.3548 29.9998 14.4611 30.9248C14.581 32.0116 14.7754 33.0888 15.0431 34.149C15.0431 34.1568 15.0431 34.1654 15.0493 34.1732C9.20325 32.1201 5.00012 26.5474 5.00012 20.0107ZM20.0001 35.0107C19.1624 35.0104 18.3262 34.9404 17.5001 34.8013C17.5087 34.5896 17.5126 34.3919 17.5337 34.2544C17.7236 33.0123 18.3454 31.7974 19.1845 30.8677C20.0134 29.9505 21.1493 29.3302 21.8493 28.2896C22.5353 27.274 22.7407 25.9068 22.4579 24.7201C22.0415 22.9669 19.6595 22.3818 18.3751 21.431C17.6368 20.8841 16.9798 20.0388 16.0103 19.9701C15.5634 19.9388 15.1892 20.0349 14.7462 19.9208C14.34 19.8154 14.0212 19.5966 13.5884 19.6537C12.7798 19.7599 12.2697 20.624 11.4009 20.5068C10.5767 20.3966 9.72746 19.4318 9.53996 18.6466C9.29934 17.6372 10.0978 17.3099 10.9532 17.2201C11.3103 17.1826 11.7111 17.1419 12.054 17.2732C12.5056 17.4404 12.7189 17.8826 13.1243 18.106C13.8845 18.5232 14.0384 17.8568 13.922 17.1818C13.7478 16.1708 13.5447 15.7591 14.4462 15.063C15.0712 14.5833 15.6056 14.2365 15.5056 13.3747C15.4462 12.8685 15.1689 12.6396 15.4275 12.1357C15.6236 11.7521 16.1618 11.406 16.5126 11.1771C17.4181 10.5865 20.3915 10.6302 19.1767 8.97709C18.8197 8.49193 18.1611 7.62474 17.5361 7.50599C16.7548 7.35834 16.4079 8.23021 15.8634 8.61459C15.3009 9.01225 14.2056 9.46381 13.6423 8.84896C12.8845 8.02162 14.1447 7.75053 14.4236 7.1724C14.5525 6.90287 14.4236 6.52865 14.2064 6.17631C14.4881 6.05756 14.7746 5.9474 15.0657 5.84584C15.2482 5.9806 15.4647 6.06177 15.6907 6.08021C16.2134 6.11459 16.7064 5.83177 17.1626 6.18802C17.6689 6.57865 18.0337 7.0724 18.7056 7.19428C19.3556 7.31224 20.0439 6.93334 20.2048 6.26771C20.3025 5.86303 20.2048 5.43568 20.1111 5.01771C23.0329 5.03452 25.8855 5.90957 28.3142 7.53412C28.1579 7.47474 27.9712 7.48178 27.7407 7.58881C27.2665 7.80912 26.5947 8.37006 26.5392 8.92631C26.4759 9.55756 27.4071 9.64662 27.8493 9.64662C28.5134 9.64662 29.1861 9.34974 28.972 8.58256C28.879 8.24974 28.7525 7.90365 28.5486 7.69428C29.0387 8.0344 29.5083 8.40328 29.9548 8.79896C29.9478 8.80599 29.9407 8.81224 29.9337 8.82006C29.4837 9.28881 28.9611 9.6599 28.6532 10.2302C28.4361 10.6318 28.1915 10.8224 27.7517 10.9263C27.5095 10.9833 27.2329 11.0044 27.0298 11.1669C26.4642 11.6122 26.7861 12.6826 27.322 13.0037C27.9993 13.4091 29.004 13.2185 29.515 12.6396C29.9142 12.1865 30.1493 11.3997 30.8673 11.4005C31.1834 11.3999 31.487 11.5236 31.7126 11.7451C32.0095 12.0529 31.9509 12.3404 32.0142 12.7247C32.1259 13.4076 32.7282 13.0372 33.0946 12.6927C33.3617 13.168 33.6027 13.6576 33.8165 14.1591C33.4134 14.7396 33.0931 15.3724 32.1236 14.6958C31.5431 14.2904 31.1861 13.7021 30.4571 13.5193C29.8204 13.363 29.1681 13.5255 28.5392 13.6341C27.8243 13.7583 26.9767 13.813 26.4345 14.3544C25.9103 14.8763 25.6329 15.5747 25.0751 16.099C23.9962 17.1146 23.5407 18.2232 24.2392 19.6591C24.9111 21.0396 26.3165 21.7888 27.8329 21.6904C29.3228 21.5912 30.8704 20.7271 30.8275 22.8919C30.8118 23.6583 30.972 24.1888 31.2071 24.9005C31.4251 25.5568 31.4103 26.1927 31.4603 26.8701C31.5078 27.6632 31.6318 28.45 31.8306 29.2193C30.4303 31.0222 28.6364 32.4813 26.586 33.485C24.5357 34.4887 22.283 35.0106 20.0001 35.0107Z" fill="#3671E9"/>
</svg>
